<?xml version="1.0" encoding="UTF-8"?>
<svg width="113px" height="23px" viewBox="0 0 113 23" version="1.1" xmlns="http://www.w3.org/2000/svg" xmlns:xlink="http://www.w3.org/1999/xlink">
    <!-- Generator: Sketch 50 (54983) - http://www.bohemiancoding.com/sketch -->
    <title>Group</title>
    <desc>Created with Sketch.</desc>
    <defs>
        <polygon id="path-1" points="0.367144186 0.145032049 13.2300279 0.145032049 13.2300279 12.9492901 0.367144186 12.9492901"></polygon>
        <polygon id="path-3" points="0.422283056 0.484180122 11.6499508 0.484180122 11.6499508 12.9492901 0.422283056 12.9492901"></polygon>
    </defs>
    <g id="Page-1" stroke="none" stroke-width="1" fill="none" fill-rule="evenodd">
        <g id="Desktop-HD" transform="translate(-31.000000, -30.000000)">
            <g id="Group" transform="translate(31.000000, 30.000000)">
                <polygon id="Fill-1" fill="#26C1EB" points="13.0932515 0 0 23 5.81349693 23 16 5.1064791"></polygon>
                <polygon id="Fill-2" fill="#0E497A" points="9 23 26 23 23.1704513 18.0081179 17.4916339 18.0081179 20.3313414 12.9967529 17.5 8"></polygon>
                <g id="Group-17" transform="translate(34.000000, 5.000000)">
                    <g id="Group-5" transform="translate(0.000000, 4.933063)">
                        <mask id="mask-2" fill="white">
                            <use xlink:href="#path-1"></use>
                        </mask>
                        <g id="Clip-4"></g>
                        <path d="M10.1277023,6.5469144 C10.1277023,4.50955943 8.71010764,3.12768519 6.78636013,3.12768519 C4.88706445,3.12768519 3.46885847,4.50955943 3.46885847,6.5469144 C3.46885847,8.58426937 4.88706445,9.96676024 6.78636013,9.96676024 C8.71010764,9.96676024 10.1277023,8.58426937 10.1277023,6.5469144 Z M13.2300279,0.484180122 L13.2300279,12.6096487 L10.1277023,12.6096487 L10.1277023,11.1790604 C9.26271894,12.269884 7.96432691,12.9494134 6.20990831,12.9494134 C3.0116093,12.9494134 0.367144186,10.160383 0.367144186,6.5469144 C0.367144186,2.93344584 3.0116093,0.145032049 6.20990831,0.145032049 C7.96432691,0.145032049 9.26271894,0.823944828 10.1277023,1.91476836 L10.1277023,0.484180122 L13.2300279,0.484180122 Z" id="Fill-3" fill="#26C1EB" mask="url(#mask-2)"></path>
                    </g>
                    <path d="M20.2012439,8.42425314 L20.2012439,13.4683099 C20.2012439,14.7780381 21.1383601,14.8020868 22.9178419,14.7058921 L22.9178419,17.5430199 C18.5660279,18.0283099 17.0989183,16.7420138 17.0989183,13.4683099 L17.0989183,8.42425314 L15.0076757,8.42425314 L15.0076757,5.41755132 L17.0989183,5.41755132 L17.0989183,2.96705233 L20.2012439,2.02175416 L20.2012439,5.41755132 L22.9178419,5.41755132 L22.9178419,8.42425314 L20.2012439,8.42425314 Z" id="Fill-6" fill="#26C1EB"></path>
                    <polygon id="Fill-8" fill="#26C1EB" points="23.9498924 0.567302231 27.5565369 0.567302231 31.6681116 13.6140203 35.7546233 0.567302231 39.3851083 0.567302231 33.7116731 17.5425882 29.599487 17.5425882"></polygon>
                    <path d="M48.1103761,10.3400698 C47.7258711,8.59376552 46.4274791,7.89080406 45.1296983,7.89080406 C43.4706419,7.89080406 42.3403561,8.78800487 41.9796917,10.3400698 L48.1103761,10.3400698 Z M45.4176186,15.0449785 C46.6200372,15.0449785 47.5816053,14.5362564 48.1103761,13.8320617 L50.6111867,15.2873152 C49.480901,16.9361915 47.67819,17.8821063 45.3699375,17.8821063 C41.331107,17.8821063 38.7826153,15.0936925 38.7826153,11.4802239 C38.7826153,7.86675538 41.3549475,5.07772495 45.1296983,5.07772495 C48.6880505,5.07772495 51.2114791,7.91485274 51.2114791,11.4802239 C51.2114791,11.9414653 51.163798,12.3533761 51.0916651,12.7652868 L42.0285953,12.7652868 C42.4607814,14.3660657 43.783014,15.0449785 45.4176186,15.0449785 Z" id="Fill-10" fill="#26C1EB"></path>
                    <path d="M64.6025223,10.0976714 L64.6025223,17.5428966 L61.5014193,17.5428966 L61.5014193,10.4855335 C61.5014193,8.83727383 60.5153993,7.98817039 59.1210339,7.98817039 C57.6062432,7.98817039 56.4759575,8.8853712 56.4759575,10.9948722 L56.4759575,17.5428966 L53.3748545,17.5428966 L53.3748545,5.41742799 L56.4759575,5.41742799 L56.4759575,6.77525355 C57.1978977,5.68381339 58.4479973,5.07766329 60.0581502,5.07766329 C62.6066419,5.07766329 64.6025223,6.87206491 64.6025223,10.0976714" id="Fill-12" fill="#26C1EB"></path>
                    <g id="Group-16" transform="translate(66.631229, 4.933063)">
                        <mask id="mask-4" fill="white">
                            <use xlink:href="#path-3"></use>
                        </mask>
                        <g id="Clip-15"></g>
                        <path d="M11.6499508,0.484180122 L11.6499508,12.6096487 L8.54884784,12.6096487 L8.54884784,11.2512065 C7.82690764,12.3426467 6.57680797,12.9494134 4.96665515,12.9494134 C2.41816346,12.9494134 0.422283056,11.1550118 0.422283056,7.92940527 L0.422283056,0.484180122 L3.52399734,0.484180122 L3.52399734,7.5415432 C3.52399734,9.19041947 4.50940598,10.0389063 5.90377143,10.0389063 C7.41856213,10.0389063 8.54884784,9.14232211 8.54884784,7.03220446 L8.54884784,0.484180122 L11.6499508,0.484180122 Z" id="Fill-14" fill="#26C1EB" mask="url(#mask-4)"></path>
                    </g>
                </g>
            </g>
        </g>
    </g>
</svg>